<svg width="800" height="620" viewBox="0 0 800 620" fill="none" xmlns="http://www.w3.org/2000/svg">
  <rect width="800" height="620" rx="42" fill="#0D1115"/>
  <rect x="36" y="36" width="728" height="548" rx="30" fill="url(#paint0_linear)"/>
  <path d="M241 257C241 169.187 312.187 98 400 98C487.813 98 559 169.187 559 257V294C559 381.813 487.813 453 400 453C312.187 453 241 381.813 241 294V257Z" stroke="#F4F1EA" stroke-width="24"/>
  <path d="M306 336C330.667 374 362 393 400 393C438 393 469.333 374 494 336" stroke="#7CF2CF" stroke-width="18" stroke-linecap="round"/>
  <path d="M320 268C340 285.333 366.667 294 400 294C433.333 294 460 285.333 480 268" stroke="#F4D18F" stroke-width="14" stroke-linecap="round"/>
  <defs>
    <linearGradient id="paint0_linear" x1="80" y1="74" x2="714" y2="562" gradientUnits="userSpaceOnUse">
      <stop stop-color="#0E1419"/>
      <stop offset="1" stop-color="#1A1F27"/>
    </linearGradient>
  </defs>
</svg>
